<?xml version="1.0" encoding="utf-8"?>
<!-- Generator: Adobe Illustrator 23.0.0, SVG Export Plug-In . SVG Version: 6.00 Build 0)  -->
<svg version="1.1" id="Lag_1" xmlns="http://www.w3.org/2000/svg" xmlns:xlink="http://www.w3.org/1999/xlink" x="0px" y="0px"
	 viewBox="0 0 2011.8 879.3" style="enable-background:new 0 0 2011.8 879.3;" xml:space="preserve">
<style type="text/css">
	.st0{fill:#F0E9DF;}
	.st1{fill:none;stroke:#F0E9DF;stroke-width:40;stroke-linecap:round;stroke-miterlimit:10;}
</style>
<title>logo_new</title>
<path class="st0" d="M1203.9,756.9v16.9l-30.2,86.6h30.2v17.3h-46.6v-16.9l30.2-86.7h-28.8v-17.3H1203.9z"/>
<path class="st0" d="M1258.4,837.7l-20.1-80.8h16.6l12.2,55.1l12.2-55.1h15.2l-20.1,80.8v40h-15.9L1258.4,837.7z"/>
<path class="st0" d="M1352.5,810.4h22.3v38.3c0,9.8-2,17.3-6,22.5s-9.9,7.8-17.7,7.8c-7.8,0-13.7-2.6-17.7-7.9c-4-5.2-6-12.7-6-22.5
	v-62.8c0-9.8,2-17.3,6-22.5c4-5.2,9.9-7.9,17.7-7.8c7.8,0,13.7,2.6,17.7,7.8c4,5.2,6,12.7,6,22.5v11.7h-15v-13
	c0-4.4-0.7-7.4-2.2-9.2c-3-3.3-8.1-3.6-11.4-0.6c-0.2,0.2-0.4,0.4-0.6,0.6c-1.5,1.8-2.2,4.9-2.2,9.2v65.3c0,4.4,0.7,7.4,2.2,9.1
	c3.1,3.3,8.3,3.5,11.6,0.4c0.1-0.1,0.2-0.2,0.4-0.4c1.5-1.7,2.2-4.8,2.2-9.1v-22.3h-7.2L1352.5,810.4z"/>
<path class="st0" d="M1448.9,842.7l10.8-85.8h22.1v120.8h-15v-86.7l-11,86.7h-15l-11.9-85.5v85.5h-13.9V756.9h22.1L1448.9,842.7z"/>
<path class="st0" d="M1538.8,756.9v93.2c0,4.4,0.7,7.4,2.2,9.2c3.1,3.3,8.4,3.5,11.7,0.3c0.1-0.1,0.2-0.2,0.3-0.3
	c1.5-1.7,2.2-4.8,2.2-9.2v-93.2h15v92c0,9.8-2,17.3-6,22.5c-4,5.2-9.9,7.9-17.7,7.8c-7.8,0-13.7-2.6-17.7-7.8c-4-5.2-6-12.7-6-22.5
	v-92H1538.8z"/>
<path class="st0" d="M1625.4,790.2v87.5h-14.3V756.9h19.9l16.3,72.3v-72.3h14.2v120.8h-16.3L1625.4,790.2z"/>
<path class="st0" d="M1698.6,756.9h49.2v17.3h-16.6v103.6h-15.9V774.1h-16.6V756.9z"/>
<path class="st0" d="M1160.1,614.4h16.7v109.4h27.5v18.3h-44.3V614.4z"/>
<path class="st0" d="M1260.1,668.2h23v18.2h-23v37.4h28.9v18.3h-45.6V614.4h45.6v18.2h-28.9V668.2z"/>
<path class="st0" d="M1326.3,614.4h51.7v18.2h-17.5v109.5h-16.7V632.6h-17.5V614.4z"/>
<path class="st0" d="M1431.9,649.6v92.5h-15V614.4h21l17.2,76.4v-76.4h14.9v127.7h-17.2L1431.9,649.6z"/>
<path class="st0" d="M1513.8,614.4h16.7v127.7h-16.7V614.4z"/>
<path class="st0" d="M1572.3,645c0-10.3,2.1-18.3,6.2-23.8s10.3-8.3,18.5-8.3c8.2,0,14.4,2.8,18.5,8.3s6.2,13.5,6.2,23.8v4h-15.8
	v-5.3c0-4.6-0.7-7.9-2.2-9.8c-2.9-3.4-8.1-3.8-11.5-0.8c-0.3,0.3-0.6,0.5-0.8,0.8c-1.5,1.9-2.2,5.1-2.2,9.8c-0.1,4,0.8,8,2.4,11.6
	c1.6,3.4,3.7,6.6,6.1,9.5c2.4,3,5,6,7.8,8.9c2.8,3.1,5.5,6.3,7.8,9.8c2.5,3.7,4.6,7.8,6.1,12c1.7,5.1,2.5,10.5,2.4,15.9
	c0,10.3-2.1,18.3-6.3,23.8c-4.2,5.5-10.4,8.3-18.6,8.3c-8.2,0-14.4-2.8-18.6-8.3c-4.2-5.5-6.3-13.5-6.3-23.8v-7.8h15.8v9.1
	c0,4.6,0.8,7.8,2.4,9.7c3.3,3.5,8.7,3.7,12.2,0.4c0.1-0.1,0.3-0.3,0.4-0.4c1.6-1.8,2.4-5,2.4-9.7c0.1-4-0.7-8-2.4-11.6
	c-1.7-3.4-3.7-6.6-6.1-9.5c-2.4-3-5-6-7.8-8.9c-2.8-3.1-5.5-6.3-7.8-9.8c-2.5-3.7-4.6-7.8-6.1-12
	C1573,655.8,1572.2,650.4,1572.3,645z"/>
<path class="st0" d="M1685,691.1l-5.2,11.7v39.3h-16.7V614.4h16.7V670l21.9-55.6h16.7l-23.3,56.9l23.3,70.8h-17.2L1685,691.1z"/>
<path class="st0" d="M1755.4,645c0-10.3,2.2-18.3,6.5-23.8s10.6-8.3,18.9-8.3c8.2,0,14.5,2.8,18.8,8.3s6.5,13.5,6.5,23.8v66.4
	c0,10.3-2.2,18.3-6.5,23.8s-10.6,8.3-18.8,8.3c-8.2,0-14.5-2.8-18.9-8.3s-6.5-13.5-6.5-23.8V645z M1772.1,712.7
	c0,4.6,0.8,7.9,2.4,9.8c3.1,3.5,8.4,3.8,11.9,0.7c0.2-0.2,0.5-0.4,0.7-0.7c1.6-1.9,2.4-5.1,2.4-9.8v-69c0-4.6-0.8-7.9-2.4-9.8
	c-3.1-3.5-8.5-3.8-12-0.7c-0.2,0.2-0.5,0.4-0.7,0.7c-1.6,1.9-2.4,5.1-2.4,9.8V712.7z"/>
<path class="st0" d="M1885.9,674l-6.1,68h-23l-11.9-127.6h16.3l9,100.7l8.1-100.7h16.1l8.4,101.4l8.7-101.4h14.6l-11.9,127.7h-22.2
	L1885.9,674z"/>
<path class="st0" d="M1982.9,668.2h23v18.2h-23v37.4h28.9v18.3h-45.6V614.4h45.6v18.2h-28.9V668.2z"/>
<path class="st0" d="M1160.8,455.9h29.8c9.5,0,16.5,3,21.1,9.1s6.9,14.9,6.9,26.6v72.9c0,11.7-2.3,20.5-6.9,26.6s-11.7,9-21.1,9
	h-29.8V455.9z M1179.7,476.5v102.9h10.6c2.7,0.1,5.3-1,7-3.1c1.7-2.1,2.6-5.7,2.6-10.9v-74.9c0-5.2-0.9-8.9-2.6-10.9
	c-1.7-2.1-4.3-3.2-7-3.1L1179.7,476.5z"/>
<path class="st0" d="M1264.9,490.5c0-11.7,2.5-20.6,7.3-26.9c4.9-6.2,12-9.4,21.2-9.4c9.2,0,16.3,3.1,21.2,9.4
	c4.9,6.2,7.4,15.2,7.3,26.9v74.9c0,11.7-2.4,20.6-7.3,26.9c-4.9,6.2-12,9.4-21.2,9.4c-9.2,0-16.3-3.1-21.2-9.4
	c-4.9-6.2-7.4-15.2-7.3-26.9V490.5z M1283.8,566.8c0,5.2,0.9,8.9,2.7,11c3.5,3.9,9.5,4.3,13.4,0.8c0.3-0.2,0.5-0.5,0.8-0.8
	c1.8-2.1,2.7-5.8,2.7-11V489c0-5.2-0.9-8.9-2.7-11c-3.5-3.9-9.5-4.3-13.4-0.8c-0.3,0.2-0.5,0.5-0.8,0.8c-1.8,2.1-2.7,5.8-2.7,11
	V566.8z"/>
<path class="st0" d="M1409.6,558.2l12.8-102.3h26.2V600h-17.8V496.6l-13,103.3h-17.8l-14-101.9V600h-16.4V455.9h26.2L1409.6,558.2z"
	/>
<path class="st0" d="M1522.7,542.5l-5.8,13.2V600h-18.8V455.9h18.8v62.8l24.6-62.8h18.8l-26.2,64.2l26.2,79.9H1541L1522.7,542.5z"/>
<path class="st0" d="M1604.7,455.9h18.8V600h-18.8V455.9z"/>
<g>
	<g>
		<path class="st1" d="M114.2,845.4c0-152.5,1.9-286.2,1.9-443.9"/>
		<line class="st1" x1="20" y1="490.3" x2="491" y2="20"/>
		<path class="st1" d="M962,490.3L491,20"/>
		<path class="st1" d="M427.2,203.4l116.8-1.7"/>
		<path class="st1" d="M323.3,312.2l320.2,1.6"/>
		<path class="st1" d="M196.9,424.1l568.6-1.5"/>
		<path class="st1" d="M202.2,537.6c187.5-0.5,375-0.9,562.5,0.8"/>
		<path class="st1" d="M189.6,643.2c66.6,0,134.6,0.6,201.7,0.6"/>
		<path class="st1" d="M586.6,642.9c66.6,0,134.6,0.6,201.7,0.6"/>
		<path class="st1" d="M191.8,747c68.4,0,139,0.6,207.6,0.6"/>
		<path class="st1" d="M580.7,747.3c68.4,0,139,0.6,207.6,0.6"/>
		<path class="st1" d="M404.1,855.5c1.5-105,0.9-200,2.3-305"/>
		<path class="st1" d="M567.6,855.5c1.5-105,0.9-200,2.3-305"/>
		<line class="st1" x1="20" y1="855.5" x2="399.4" y2="855.5"/>
		<line class="st1" x1="567.7" y1="855.5" x2="1104.5" y2="855.5"/>
		<line class="st1" x1="1104.5" y1="459.6" x2="1104.5" y2="853.6"/>
		<path class="st1" d="M859.7,845.4c0-152.5,1.9-286.2,1.9-443.9"/>
		<line class="st1" x1="982.9" y1="674.7" x2="982.9" y2="839"/>
		<path class="st1" d="M926.3,607c-0.1-31.3,25.2-56.7,56.5-56.8c31.3-0.1,56.7,25.2,56.8,56.5c0.1,31.3-25.2,56.7-56.5,56.8
			c0,0-0.1,0-0.1,0C951.7,663.6,926.3,638.3,926.3,607C926.3,607,926.3,607,926.3,607z"/>
		<ellipse class="st1" cx="1104.5" cy="322.2" rx="121.5" ry="118.8"/>
	</g>
</g>
</svg>
