<svg id="Lag_1" data-name="Lag 1" xmlns="http://www.w3.org/2000/svg" xmlns:xlink="http://www.w3.org/1999/xlink" viewBox="0 0 2011.77 879.27"><defs><style>.cls-1,.cls-5{fill:none;}.cls-2{clip-path:url(#clip-path);}.cls-3{opacity:0.26;}.cls-4{fill:#f0e9df;}.cls-5{stroke:#f0e9df;stroke-linecap:round;stroke-miterlimit:10;stroke-width:40px;}</style><clipPath id="clip-path" transform="translate(-4.07 -5.93)"><rect class="cls-1" x="-272.93" y="-215.07" width="2340" height="1960"/></clipPath></defs><title>logo_new</title><path class="cls-4" d="M1208,762.82v16.92l-30.22,86.64H1208v17.27H1161.4V866.73l30.22-86.65h-28.78V762.82Z" transform="translate(-4.07 -5.93)"/><path class="cls-4" d="M1262.47,843.6l-20.1-80.78H1259l12.15,55.06,12.15-55.06h15.18l-20.1,80.78v40h-15.91Z" transform="translate(-4.07 -5.93)"/><path class="cls-4" d="M1356.61,816.33h22.27v38.32q0,14.67-6,22.52T1355.17,885q-11.72,0-17.72-7.86t-6-22.52V791.82q0-14.67,6-22.53t17.72-7.85q11.7,0,17.71,7.85t6,22.53v11.74h-15V790.61q0-6.55-2.24-9.23a8.06,8.06,0,0,0-12,0c-1.5,1.78-2.24,4.86-2.24,9.23v65.25c0,4.37.74,7.42,2.24,9.14a8.24,8.24,0,0,0,12,0q2.24-2.58,2.24-9.14V833.59h-7.23Z" transform="translate(-4.07 -5.93)"/><path class="cls-4" d="M1452.92,848.61l10.85-85.79h22.12V883.65h-15V797l-11,86.65h-15L1433,798.2v85.45h-13.88V762.82h22.13Z" transform="translate(-4.07 -5.93)"/><path class="cls-4" d="M1542.86,762.82V856q0,6.56,2.24,9.15a8.26,8.26,0,0,0,12,0q2.23-2.59,2.24-9.15V762.82h15v92q0,14.67-6,22.53t-17.72,7.85q-11.72,0-17.71-7.85t-6-22.53v-92Z" transform="translate(-4.07 -5.93)"/><path class="cls-4" d="M1629.48,796.13v87.52h-14.31V762.82h19.95l16.34,72.32V762.82h14.17V883.65h-16.34Z" transform="translate(-4.07 -5.93)"/><path class="cls-4" d="M1702.65,762.82h49.17v17.26h-16.63V883.65h-15.91V780.08h-16.63Z" transform="translate(-4.07 -5.93)"/><path class="cls-4" d="M1164.15,620.29h16.73V729.72h27.52V748h-44.25Z" transform="translate(-4.07 -5.93)"/><path class="cls-4" d="M1264.21,674.09h23v18.24h-23v37.39h28.89V748h-45.62V620.29h45.62v18.24h-28.89Z" transform="translate(-4.07 -5.93)"/><path class="cls-4" d="M1330.35,620.29h51.71v18.24h-17.49V748h-16.73V638.53h-17.49Z" transform="translate(-4.07 -5.93)"/><path class="cls-4" d="M1436,655.49V748H1421V620.29h21l17.18,76.42V620.29h14.9V748h-17.18Z" transform="translate(-4.07 -5.93)"/><path class="cls-4" d="M1517.84,620.29h16.73V748h-16.73Z" transform="translate(-4.07 -5.93)"/><path class="cls-4" d="M1576.39,650.93q0-15.49,6.15-23.8t18.48-8.3q12.32,0,18.48,8.3t6.15,23.8v4h-15.81v-5.29q0-6.93-2.21-9.76a8.13,8.13,0,0,0-12.31,0q-2.21,2.83-2.21,9.76a26.09,26.09,0,0,0,2.44,11.58,47.74,47.74,0,0,0,6.08,9.49q3.64,4.47,7.83,8.94a84.34,84.34,0,0,1,7.83,9.75,52.44,52.44,0,0,1,6.08,12,46.84,46.84,0,0,1,2.44,15.87q0,15.51-6.31,23.8t-18.63,8.3q-12.31,0-18.63-8.3t-6.31-23.8v-7.84h15.81v9.12q0,6.93,2.36,9.66a8.64,8.64,0,0,0,12.62,0q2.35-2.73,2.36-9.66a26.3,26.3,0,0,0-2.43-11.59,48.47,48.47,0,0,0-6.09-9.48q-3.64-4.47-7.83-8.94a84.34,84.34,0,0,1-7.83-9.75,52.44,52.44,0,0,1-6.08-12A46.85,46.85,0,0,1,1576.39,650.93Z" transform="translate(-4.07 -5.93)"/><path class="cls-4" d="M1689.06,697.07l-5.17,11.68V748h-16.72V620.29h16.72v55.63l21.9-55.63h16.73l-23.27,56.9L1722.52,748h-17.19Z" transform="translate(-4.07 -5.93)"/><path class="cls-4" d="M1759.46,650.93q0-15.49,6.54-23.8t18.86-8.3q12.32,0,18.85,8.3t6.54,23.8v66.39q0,15.51-6.54,23.8t-18.85,8.3q-12.31,0-18.86-8.3t-6.54-23.8Zm16.73,67.67q0,6.93,2.36,9.75a8.45,8.45,0,0,0,12.62,0q2.36-2.82,2.36-9.75v-69q0-6.93-2.36-9.76a8.47,8.47,0,0,0-12.62,0q-2.35,2.83-2.36,9.76Z" transform="translate(-4.07 -5.93)"/><path class="cls-4" d="M1889.93,679.93l-6.08,68h-23L1849,620.29h16.27l9,100.68,8.06-100.68h16.12l8.36,101.41,8.67-101.41h14.6L1918.22,748H1896Z" transform="translate(-4.07 -5.93)"/><path class="cls-4" d="M1987,674.09h23v18.24h-23v37.39h28.89V748h-45.62V620.29h45.62v18.24H1987Z" transform="translate(-4.07 -5.93)"/><path class="cls-4" d="M1164.91,461.8h29.78q14.19,0,21.13,9.06t6.93,26.56v72.86q0,17.51-6.93,26.56t-21.13,9h-29.78Zm18.83,20.59V585.31h10.6a8.64,8.64,0,0,0,7-3.09q2.57-3.09,2.57-10.91V496.39q0-7.83-2.57-10.91a8.64,8.64,0,0,0-7-3.09Z" transform="translate(-4.07 -5.93)"/><path class="cls-4" d="M1269,496.39q0-17.5,7.35-26.87t21.22-9.36q13.86,0,21.22,9.36t7.35,26.87v74.92q0,17.51-7.35,26.86t-21.22,9.37q-13.86,0-21.22-9.37T1269,571.31Zm18.82,76.36q0,7.83,2.65,11a9.5,9.5,0,0,0,14.2,0q2.66-3.19,2.65-11V494.94q0-7.81-2.65-11a9.5,9.5,0,0,0-14.2,0q-2.65,3.19-2.65,11Z" transform="translate(-4.07 -5.93)"/><path class="cls-4" d="M1413.7,564.11l12.83-102.31h26.18V605.89h-17.79V502.56l-13,103.33h-17.79l-14-101.89V605.89h-16.43V461.8h26.18Z" transform="translate(-4.07 -5.93)"/><path class="cls-4" d="M1526.8,548.46,1521,561.64v44.25h-18.82V461.8H1521v62.79l24.64-62.79h18.82L1538.26,526l26.18,79.86h-19.33Z" transform="translate(-4.07 -5.93)"/><path class="cls-4" d="M1608.76,461.8h18.82V605.89h-18.82Z" transform="translate(-4.07 -5.93)"/><g class="cls-2"><path class="cls-5" d="M118.3,851.3c0-152.49,1.91-286.2,1.91-443.88" transform="translate(-4.07 -5.93)"/><line class="cls-5" x1="20" y1="490.28" x2="491" y2="20"/><path class="cls-5" d="M966.07,496.21l-471-470.28" transform="translate(-4.07 -5.93)"/><path class="cls-5" d="M431.25,209.35l116.83-1.73" transform="translate(-4.07 -5.93)"/><path class="cls-5" d="M327.39,318.18l320.22,1.64" transform="translate(-4.07 -5.93)"/><path class="cls-5" d="M201,430l568.61-1.48" transform="translate(-4.07 -5.93)"/><path class="cls-5" d="M206.23,543.55c187.51-.45,375-.9,562.54.76" transform="translate(-4.07 -5.93)"/><path class="cls-5" d="M193.67,649.11c66.62,0,134.62.57,201.69.57" transform="translate(-4.07 -5.93)"/><path class="cls-5" d="M590.7,648.82c66.63,0,134.62.57,201.69.57" transform="translate(-4.07 -5.93)"/><path class="cls-5" d="M195.86,752.93c68.36,0,139,.57,207.6.57" transform="translate(-4.07 -5.93)"/><path class="cls-5" d="M584.79,753.22c68.36,0,139,.56,207.6.56" transform="translate(-4.07 -5.93)"/><path class="cls-5" d="M408.16,861.4c1.45-105,.87-199.95,2.32-305" transform="translate(-4.07 -5.93)"/><path class="cls-5" d="M571.72,861.4c1.45-105,.87-199.95,2.31-305" transform="translate(-4.07 -5.93)"/><line class="cls-5" x1="20" y1="855.47" x2="399.39" y2="855.47"/><line class="cls-5" x1="567.65" y1="855.47" x2="1104.46" y2="855.47"/><line class="cls-5" x1="1104.46" y1="459.56" x2="1104.46" y2="853.58"/><path class="cls-5" d="M863.76,851.3c0-152.49,1.9-286.2,1.9-443.88" transform="translate(-4.07 -5.93)"/><line class="cls-5" x1="982.92" y1="674.68" x2="982.92" y2="839.04"/><path class="cls-5" d="M930.33,612.93A56.66,56.66,0,1,1,987,669.44,56.59,56.59,0,0,1,930.33,612.93Z" transform="translate(-4.07 -5.93)"/><ellipse class="cls-5" cx="1104.46" cy="322.25" rx="121.54" ry="118.83"/></g></svg>